<?xml version="1.0" encoding="UTF-8" standalone="no"?>
<!-- Created with Inkscape (http://www.inkscape.org/) -->

<svg
   xmlns:dc="http://purl.org/dc/elements/1.1/"
   xmlns:cc="http://creativecommons.org/ns#"
   xmlns:rdf="http://www.w3.org/1999/02/22-rdf-syntax-ns#"
   xmlns:svg="http://www.w3.org/2000/svg"
   xmlns="http://www.w3.org/2000/svg"
   xmlns:sodipodi="http://sodipodi.sourceforge.net/DTD/sodipodi-0.dtd"
   xmlns:inkscape="http://www.inkscape.org/namespaces/inkscape"
   width="210"
   height="35"
   id="svg7128"
   version="1.1"
   inkscape:version="0.48.3.1 r9886"
   sodipodi:docname="drawing.svg">
  <defs
     id="defs7130" />
  <sodipodi:namedview
     id="base"
     pagecolor="#ffffff"
     bordercolor="#666666"
     borderopacity="1.0"
     inkscape:pageopacity="0.0"
     inkscape:pageshadow="2"
     inkscape:zoom="2.8"
     inkscape:cx="190.17245"
     inkscape:cy="1021.2259"
     inkscape:document-units="px"
     inkscape:current-layer="layer1"
     showgrid="false"
     showguides="true"
     inkscape:guide-bbox="true"
     inkscape:window-width="1366"
     inkscape:window-height="749"
     inkscape:window-x="0"
     inkscape:window-y="0"
     inkscape:window-maximized="1" />
  <metadata
     id="metadata7133">
    <rdf:RDF>
      <cc:Work
         rdf:about="">
        <dc:format>image/svg+xml</dc:format>
        <dc:type
           rdf:resource="http://purl.org/dc/dcmitype/StillImage" />
        <dc:title></dc:title>
      </cc:Work>
    </rdf:RDF>
  </metadata>
  <g
     inkscape:label="Layer 1"
     inkscape:groupmode="layer"
     id="layer1">
    <path
       style="fill:#614261;fill-rule:evenodd;color:#000000;fill-opacity:1;stroke-width:1;stroke-linecap:butt;stroke-linejoin:miter;stroke-miterlimit:4;stroke-opacity:1;stroke-dasharray:none;stroke-dashoffset:0;marker:none;visibility:visible;display:inline;overflow:visible;enable-background:accumulate"
       inkscape:connector-curvature="0"
       clip-rule="evenodd"
       d="m 77.225358,5.2886256 c -0.928,-0.226 -0.625,0.053 -0.715,-0.27 -0.185,-0.658 -0.452,-1.346 -0.825,-2.057 0,0 -8.607,-1.3069998 -10.877,-1.0279999 -0.086,0.011 -0.632,-0.045 -1.083,-0.045 -0.513,0 -2.053,0.416 -2.053,0.9289999 V 28.746625 l 1.424,1.188 1.558,-1.188 v -11.732 c 0,0 0.151,-0.21 0.418,-0.35 1.409,-0.741 8.039,-3.105 10.562,-2.755 l 0.01,1.815 c 1.722,2.221 8.915,-0.133 8.915,-0.133 l 0.054,-11.3699994 c -2.971,0.971 -4.913,1.668 -7.388,1.067 z m -12.261,10.9129994 c -0.096,0.229 -0.311,0.126 -0.311,0.126 V 3.0066256 c 0,-0.063 0.087,-0.4899999 0.311,0.134 0.705,1.967 1.933,8.4209994 0,13.0609994 z"
       id="path7056" />
    <path
       style="fill:#614261;fill-rule:evenodd;color:#000000;fill-opacity:1;stroke-width:1;stroke-linecap:butt;stroke-linejoin:miter;stroke-miterlimit:4;stroke-opacity:1;stroke-dasharray:none;stroke-dashoffset:0;marker:none;visibility:visible;display:inline;overflow:visible;enable-background:accumulate"
       inkscape:connector-curvature="0"
       clip-rule="evenodd"
       d="m 24.495571,24.362625 -7.407,-6.952 c 1.15,-1.498 1.833,-3.883 1.833,-6.068 0,-5.2729994 -4.275,-9.4089993 -9.5479998,-9.4089993 -5.2730001,0 -9.33899998,4.1359999 -9.33899998,9.4089993 0,5.273 4.06499988,9.548 9.33899998,9.548 1.4679998,0 3.3239998,-0.31 4.4799998,-0.86 l 7.484,7.491 c 0.436,0.437 1.143,0.437 1.579,0 l 1.579,-1.579 c 0.436,-0.436 0.436,-1.143 0,-1.58 z m -14.9999998,-7.258 c -3.1219998,0 -5.6530001,-2.531 -5.6530001,-5.653 0,-3.1229994 2.5310003,-5.6539994 5.6530001,-5.6539994 3.1229998,0 5.6539998,2.531 5.6539998,5.6539994 0,3.122 -2.532,5.653 -5.6539998,5.653 z"
       id="path7096" />
    <path
       style="fill:#614261;fill-rule:evenodd;color:#000000;fill-opacity:1;stroke-width:1;stroke-linecap:butt;stroke-linejoin:miter;stroke-miterlimit:4;stroke-opacity:1;stroke-dasharray:none;stroke-dashoffset:0;marker:none;visibility:visible;display:inline;overflow:visible;enable-background:accumulate"
       inkscape:connector-curvature="0"
       clip-rule="evenodd"
       d="m 192.94057,20.846997 c 0.182,0.669 -0.107,1.532 -0.633,2.059 l -2.829,2.828 c -0.781,0.781 -2.047,0.781 -2.828,0 l -2.122,-2.121 c -0.781,-0.781 -0.781,-2.048 0,-2.829 l 2.829,-2.828 c 0.554,-0.554 1.351,-0.833 2.047,-0.602 l 2.196,-2.227 c -1.562,-1.563 -4.095,-1.563 -5.657,0 l -4.243,4.242 c -1.562,1.563 -1.562,4.095 0,5.657 l 3.536,3.535 c 1.562,1.563 4.095,1.563 5.657,0 l 4.243,-4.242 c 1.562,-1.563 1.562,-4.095 0,-5.657 l -2.196,2.185 z m 14.216,-14.2049999 -3.536,-3.536 c -1.562,-1.5619998 -4.095,-1.5619998 -5.657,0 l -4.243,4.243 c -1.562,1.562 -1.562,4.0949999 0,5.6559999 l 2.227,-2.195 c -0.231,-0.695 0.048,-1.4929999 0.602,-2.0469999 l 2.828,-2.828 c 0.781,-0.781 2.047,-0.781 2.829,0 l 2.122,2.121 c 0.781,0.781 0.781,2.0469999 0,2.8279999 l -2.829,2.828 c -0.526,0.526 -1.389,0.816 -2.059,0.634 l -2.184,2.195 c 1.562,1.562 4.095,1.562 5.657,0 l 4.243,-4.243 c 1.562,-1.562 1.562,-4.0949999 0,-5.6559999 z m -17.325,13.7879999 c 0.586,0.586 1.536,0.586 2.122,0 l 7.071,-7.071 c 0.586,-0.585 0.586,-1.535 0,-2.121 -0.586,-0.586 -1.535,-0.586 -2.121,0 l -7.071,7.071 c -0.586,0.586 -0.586,1.535 -0.001,2.121 z"
       id="path7021" />
    <path
       style="fill:#614261;fill-rule:evenodd;color:#000000;fill-opacity:1;stroke-width:1;stroke-linecap:butt;stroke-linejoin:miter;stroke-miterlimit:4;stroke-opacity:1;stroke-dasharray:none;stroke-dashoffset:0;marker:none;visibility:visible;display:inline;overflow:visible;enable-background:accumulate"
       inkscape:connector-curvature="0"
       clip-rule="evenodd"
       d="M 57.61757,22.607054 46.38157,3.0050543 c 0,0 -1.688,-2.4539999 -3.682,-0.038 l -11.271,19.6399997 c 0,0 -2.324,2.363 0.149,2.426 h 26.078 c 0,0 2.033,-0.241 -0.038,-2.426 z M 42.63657,8.6820543 c 0,-0.996 0.995,-1.803 1.99,-1.803 0.996,0 2.019,0.807 2.019,1.803 v 7.5119997 c 0,0.995 -1.21,1.803 -2.206,1.803 -0.995,0 -1.802,-0.808 -1.802,-1.803 V 8.6820543 z m 2.052,14.3649997 c -1.125,0 -2.038,-0.912 -2.038,-2.037 0,-1.126 0.912,-2.038 2.038,-2.038 1.125,0 2.038,0.912 2.038,2.038 -0.001,1.125 -0.913,2.037 -2.038,2.037 z"
       id="path6896" />
    <path
       style="fill:#614261;fill-rule:evenodd;color:#000000;fill-opacity:1;stroke-width:1;stroke-linecap:butt;stroke-linejoin:miter;stroke-miterlimit:4;stroke-opacity:1;stroke-dasharray:none;stroke-dashoffset:0;marker:none;visibility:visible;display:inline;overflow:visible;enable-background:accumulate"
       inkscape:connector-curvature="0"
       clip-rule="evenodd"
       d="m 131.001,1.7193401 c -7.735,0 -14.005,6.271 -14.005,14.0059999 0,7.734 6.271,14.005 14.005,14.005 7.734,0 14.003,-6.271 14.003,-14.005 0,-7.7349999 -6.269,-14.0059999 -14.003,-14.0059999 z m 1.596,19.6049999 c -0.555,0.219 -0.797,0.15 -1.128,0.265 -0.331,0.115 -0.715,0.173 -1.153,0.173 -0.673,0 -1.196,-0.164 -1.57,-0.492 -0.373,-0.328 -0.694,-0.745 -0.694,-1.25 0,-0.196 0.014,-0.397 0.042,-0.602 0.028,-0.205 0.073,-0.77 0.134,-1.028 l 0.964,-2.256 c 0.062,-0.235 0.114,-0.458 0.156,-0.669 0.042,-0.21 0.063,-0.233 0.063,-0.408 0,-0.313 -0.199,-0.532 -0.329,-0.656 -0.129,-0.123 -0.68,-0.186 -1.045,-0.186 -0.18,0 -0.364,0.029 -0.553,0.084 -0.189,0.057 -0.351,0.11 -0.485,0.16 l 0.051,-0.926 c 0.455,-0.185 1.328,-0.444 1.744,-0.576 0.416,-0.132 0.809,-0.197 1.18,-0.197 0.668,0 1.184,0.161 1.546,0.483 0.362,0.323 0.813,0.843 0.813,1.359 0,0.106 -0.013,0.294 -0.038,0.563 -0.025,0.27 -0.071,0.517 -0.139,0.741 l -0.961,2.247 c -0.057,0.196 -0.107,0.421 -0.152,0.674 -0.045,0.252 -0.067,0.776 -0.067,0.905 0,0.325 0.073,0.547 0.218,0.665 0.146,0.117 0.297,0.311 0.656,0.311 0.486,0 0.457,0.082 0.933,-0.143 l -0.186,0.759 z m 0.416,-10.142 c -0.322,0.3 -0.711,0.518 -1.166,0.518 -0.455,0 -0.844,-0.218 -1.17,-0.518 -0.325,-0.301 -0.488,-0.697 -0.488,-1.124 0,-0.4269999 0.163,-0.8249999 0.488,-1.1279999 0.326,-0.303 0.715,-0.488 1.17,-0.488 0.455,0 0.843,0.152 1.166,0.455 0.323,0.303 0.484,0.734 0.484,1.1609999 0,0.427 -0.161,0.823 -0.484,1.124 z"
       id="path6551" />
    <path
       style="fill:#614261;fill-rule:evenodd;color:#000000;fill-opacity:1;stroke-width:1;stroke-linecap:butt;stroke-linejoin:miter;stroke-miterlimit:4;stroke-opacity:1;stroke-dasharray:none;stroke-dashoffset:0;marker:none;visibility:visible;display:inline;overflow:visible;enable-background:accumulate"
       inkscape:connector-curvature="0"
       clip-rule="evenodd"
       d="m 111.85913,5.6387685 -3.038,-3.1729999 c 0,0 -0.905,-1.2359999 -1.968,-0.175 l -2.431,2.5349999 5.097,4.972 2.377,-2.365 c 0.001,0 0.989,-0.769 -0.037,-1.794 z m -21.592,13.0309995 5.524,4.753 12.99,-12.646 -5.396,-5.1089995 -13.118,13.0019995 z m -2.878,8.14 2.727,-0.378 -2.063,-1.91 -0.664,2.288 z m 1.151,-3.651 3.157,2.671 3.379,-1.736 -5.437,-4.56 -1.099,3.625 z"
       id="path5308" />
    <path
       style="fill:#614261;fill-rule:evenodd;color:#000000;fill-opacity:1;stroke-width:1;stroke-linecap:butt;stroke-linejoin:miter;stroke-miterlimit:4;stroke-opacity:1;stroke-dasharray:none;stroke-dashoffset:0;marker:none;visibility:visible;display:inline;overflow:visible;enable-background:accumulate"
       inkscape:connector-curvature="0"
       clip-rule="evenodd"
       d="m 167.92857,16.933625 c 1.657,0 3,-1.343 3,-3 V 4.9336256 c 0,-1.657 -1.343,-2.9999999 -3,-2.9999999 h -15 c -1.657,0 -3,1.3429999 -3,2.9999999 v 8.9999994 c 0,1.657 1.343,3 3,3 h 1.917 l 1.166,5.083 6,-5.083 h 5.917 z m 6,-10.9999994 h -1.875 l -0.125,10.1249994 c 0,1.875 -2,1.875 -2,1.875 l -7.32,0.014 -1.68,1.986 h 3.917 l 6,5.083 1.166,-5.083 h 1.917 c 1.657,0 3,-1.343 3,-3 V 8.9336256 c 0,-1.657 -1.343,-3 -3,-3 z"
       id="path5415" />
  </g>
</svg>
